<?xml version="1.0" standalone="no"?>
<!DOCTYPE svg PUBLIC "-//W3C//DTD SVG 20010904//EN"
 "http://www.w3.org/TR/2001/REC-SVG-20010904/DTD/svg10.dtd">
<svg version="1.0" xmlns="http://www.w3.org/2000/svg"
 width="500.000000pt" height="500.000000pt" viewBox="0 0 500.000000 500.000000"
 preserveAspectRatio="xMidYMid meet">
<metadata>
Created by potrace 1.11, written by Peter Selinger 2001-2013
</metadata>
<g transform="translate(0.000000,500.000000) scale(0.100000,-0.100000)"
fill="#000000" stroke="none">
<path d="M2407 4929 c-53 -13 -14 10 -1006 -563 -605 -349 -918 -535 -947
-562 -52 -51 -99 -140 -113 -219 -15 -79 -15 -2074 0 -2164 13 -84 53 -164
110 -220 60 -60 1845 -1092 1941 -1123 78 -25 183 -20 254 11 26 12 454 256
952 544 605 349 919 536 948 563 52 51 99 140 113 219 15 79 15 2074 0 2164
-13 84 -53 164 -110 220 -60 60 -1846 1093 -1940 1122 -64 20 -139 23 -202 8z
m-559 -1356 c11 -10 303 -400 649 -868 l628 -849 5 846 c5 814 6 847 24 867
25 28 88 29 115 2 11 -11 22 -39 26 -63 3 -24 5 -465 3 -980 l-3 -936 -24 -26
c-18 -19 -35 -26 -62 -26 -32 0 -43 7 -76 44 -21 24 -312 415 -648 868 l-610
825 -5 -850 -5 -849 -24 -19 c-32 -26 -92 -25 -117 2 -18 20 -19 53 -22 973
-2 523 0 966 3 984 3 18 15 42 26 53 25 25 89 26 117 2z"/>
</g>
</svg>
