<svg xmlns="http://www.w3.org/2000/svg" width="666.667" height="666.667" preserveAspectRatio="xMidYMid meet" version="1.0" viewBox="0 0 500 500"><metadata>Created by potrace 1.11, written by Peter Selinger 2001-2013</metadata><g fill="#000" stroke="none"><path d="M2402 4925 c-67 -19 48 45 -997 -557 -667 -385 -912 -532 -948 -566 -58 -56 -104 -145 -117 -227 -14 -84 -13 -2069 1 -2154 5 -35 21 -88 36 -117 53 -108 63 -115 1033 -675 498 -287 928 -531 955 -542 69 -28 201 -28 270 0 28 11 457 255 955 542 670 387 917 535 953 569 58 56 104 145 117 227 14 84 13 2069 -1 2154 -5 35 -21 88 -36 117 -53 108 -63 115 -1033 675 -498 287 -927 531 -955 541 -67 26 -167 32 -233 13z m-536 -1351 c12 -7 291 -374 620 -815 l599 -803 5 785 c5 840 4 813 55 838 47 24 101 16 136 -18 l29 -30 -2 -971 -3 -972 -28 -24 c-30 -26 -101 -33 -137 -14 -10 5 -290 373 -622 816 l-603 807 -5 -785 c-5 -834 -3 -797 -50 -835 -8 -7 -37 -13 -63 -13 -41 0 -53 5 -78 29 l-29 29 0 965 c0 959 0 964 21 991 34 44 103 53 155 20z" transform="translate(0.000000,500.000000) scale(0.100000,-0.100000)"/></g></svg>